# xmcd
#
# Track frame offsets: 
#        150
#        14236
#        29933
#        50435
#        72240
#        86040
#        102604
#        121194
#        133388
#        149674
#        164767
#        181098
#        195874
#        210946
#        228829
#        243456
#        255132
#
# Disc length: 3587 seconds
#
# Revision: 0
# Processed by: cddbd v1.5.2PL0 Copyright (c) Steve Scherf et al.
# Submitted via: ExactAudioCopy v1.0b1
#
DISCID=f90e0111
DTITLE=George Canyon - Decade of Hits
DYEAR=2014
DGENRE=Country
TTITLE0=Just Like
TTITLE1=Sunshine
TTITLE2=I Want You to Live
TTITLE3=Slow Dance
TTITLE4=Who Would You Be
TTITLE5=I Believe in Angels
TTITLE6=Better Be Home Soon
TTITLE7=Ring of Fire
TTITLE8=Crazy Love
TTITLE9=Surrender
TTITLE10=Somebody Wrote Love
TTITLE11=I'll Never Do Better Than You
TTITLE12=Drinkin' Thinkin'
TTITLE13=My Name
TTITLE14=Let It Out
TTITLE15=One Good Friend
TTITLE16=Good Day To Rided
EXTD=
EXTT0=
EXTT1=
EXTT2=
EXTT3=
EXTT4=
EXTT5=
EXTT6=
EXTT7=
EXTT8=
EXTT9=
EXTT10=
EXTT11=
EXTT12=
EXTT13=
EXTT14=
EXTT15=
EXTT16=
PLAYORDER=
